<svg xmlns="http://www.w3.org/2000/svg" xmlns:xlink="http://www.w3.org/1999/xlink" zoomAndPan="magnify" preserveAspectRatio="xMidYMid meet" version="1.0" viewBox="252.02 160 522.81 257.54"><defs><g/><clipPath id="d84f9e546d"><path d="M 361.542969 160 L 662 160 L 662 417.414062 L 361.542969 417.414062 Z M 361.542969 160 " clip-rule="nonzero"/></clipPath><clipPath id="46062010be"><path d="M 424.292969 226.769531 L 627.898438 226.769531 L 627.898438 339.34375 L 424.292969 339.34375 Z M 424.292969 226.769531 " clip-rule="nonzero"/></clipPath><clipPath id="8918509688"><path d="M 525.890625 226.769531 C 469.777344 226.769531 424.292969 251.96875 424.292969 283.058594 C 424.292969 314.144531 469.777344 339.34375 525.890625 339.34375 C 582 339.34375 627.484375 314.144531 627.484375 283.058594 C 627.484375 251.96875 582 226.769531 525.890625 226.769531 Z M 525.890625 226.769531 " clip-rule="nonzero"/></clipPath></defs><g clip-path="url(#d84f9e546d)"><path fill="#345b63" d="M 570.492188 295.277344 C 560.3125 295.277344 552.0625 287.023438 552.0625 276.847656 C 552.0625 266.667969 560.3125 258.414062 570.492188 258.414062 C 580.671875 258.414062 588.921875 266.667969 588.921875 276.847656 C 588.921875 287.023438 580.671875 295.277344 570.492188 295.277344 Z M 509.058594 295.277344 C 498.878906 295.277344 490.628906 287.023438 490.628906 276.847656 C 490.628906 266.667969 498.878906 258.414062 509.058594 258.414062 C 519.238281 258.414062 527.488281 266.667969 527.488281 276.847656 C 527.488281 287.023438 519.238281 295.277344 509.058594 295.277344 Z M 447.625 295.277344 C 437.445312 295.277344 429.191406 287.023438 429.191406 276.847656 C 429.191406 266.667969 437.445312 258.414062 447.625 258.414062 C 457.804688 258.414062 466.054688 266.667969 466.054688 276.847656 C 466.054688 287.023438 457.804688 295.277344 447.625 295.277344 Z M 513.886719 160.078125 C 431.261719 158.449219 363.246094 209.363281 361.976562 273.796875 C 361.535156 296.199219 369.226562 317.285156 382.910156 335.328125 L 382.90625 335.328125 C 406.441406 365.5625 380.753906 417.539062 380.753906 417.539062 L 456.589844 384.878906 C 472.929688 390.042969 490.683594 393.050781 509.289062 393.417969 C 591.914062 395.046875 659.925781 344.132812 661.195312 279.695312 C 662.46875 215.257812 596.515625 161.707031 513.886719 160.078125 " fill-opacity="1" fill-rule="evenodd"/></g><g clip-path="url(#46062010be)"><g clip-path="url(#8918509688)"><path fill="#345b63" d="M 424.292969 226.769531 L 627.457031 226.769531 L 627.457031 339.34375 L 424.292969 339.34375 Z M 424.292969 226.769531 " fill-opacity="1" fill-rule="nonzero"/></g></g><g fill="#ffffff" fill-opacity="1"><g transform="translate(245.922626, 322.015312)"><g><path d="M 31.9375 -68.96875 C 39.207031 -68.96875 45.554688 -67.523438 50.984375 -64.640625 C 56.421875 -61.765625 60.628906 -57.722656 63.609375 -52.515625 C 66.597656 -47.304688 68.09375 -41.296875 68.09375 -34.484375 C 68.09375 -27.734375 66.597656 -21.738281 63.609375 -16.5 C 60.628906 -11.257812 56.40625 -7.195312 50.9375 -4.3125 C 45.46875 -1.4375 39.132812 0 31.9375 0 L 6.09375 0 L 6.09375 -68.96875 Z M 30.84375 -14.546875 C 37.195312 -14.546875 42.140625 -16.28125 45.671875 -19.75 C 49.210938 -23.21875 50.984375 -28.128906 50.984375 -34.484375 C 50.984375 -40.835938 49.210938 -45.78125 45.671875 -49.3125 C 42.140625 -52.851562 37.195312 -54.625 30.84375 -54.625 L 22.890625 -54.625 L 22.890625 -14.546875 Z M 30.84375 -14.546875 "/></g></g></g><g fill="#ffffff" fill-opacity="1"><g transform="translate(317.338236, 322.015312)"><g><path d="M 14.546875 -60.515625 C 11.597656 -60.515625 9.1875 -61.382812 7.3125 -63.125 C 5.445312 -64.863281 4.515625 -67.007812 4.515625 -69.5625 C 4.515625 -72.175781 5.445312 -74.351562 7.3125 -76.09375 C 9.1875 -77.832031 11.597656 -78.703125 14.546875 -78.703125 C 17.421875 -78.703125 19.789062 -77.832031 21.65625 -76.09375 C 23.53125 -74.351562 24.46875 -72.175781 24.46875 -69.5625 C 24.46875 -67.007812 23.53125 -64.863281 21.65625 -63.125 C 19.789062 -61.382812 17.421875 -60.515625 14.546875 -60.515625 Z M 22.890625 -54.828125 L 22.890625 0 L 6.09375 0 L 6.09375 -54.828125 Z M 22.890625 -54.828125 "/></g></g></g><g fill="#ffffff" fill-opacity="1"><g transform="translate(346.317054, 322.015312)"><g><path d="M 28.390625 0.78125 C 23.609375 0.78125 19.347656 -0.0351562 15.609375 -1.671875 C 11.878906 -3.304688 8.929688 -5.546875 6.765625 -8.390625 C 4.609375 -11.242188 3.398438 -14.441406 3.140625 -17.984375 L 19.75 -17.984375 C 19.945312 -16.078125 20.832031 -14.535156 22.40625 -13.359375 C 23.976562 -12.179688 25.910156 -11.59375 28.203125 -11.59375 C 30.296875 -11.59375 31.914062 -12 33.0625 -12.8125 C 34.207031 -13.632812 34.78125 -14.703125 34.78125 -16.015625 C 34.78125 -17.585938 33.960938 -18.75 32.328125 -19.5 C 30.691406 -20.25 28.035156 -21.085938 24.359375 -22.015625 C 20.429688 -22.929688 17.15625 -23.894531 14.53125 -24.90625 C 11.914062 -25.914062 9.65625 -27.519531 7.75 -29.71875 C 5.851562 -31.914062 4.90625 -34.878906 4.90625 -38.609375 C 4.90625 -41.753906 5.773438 -44.617188 7.515625 -47.203125 C 9.253906 -49.796875 11.804688 -51.84375 15.171875 -53.34375 C 18.546875 -54.851562 22.5625 -55.609375 27.21875 -55.609375 C 34.09375 -55.609375 39.507812 -53.90625 43.46875 -50.5 C 47.4375 -47.09375 49.710938 -42.570312 50.296875 -36.9375 L 34.78125 -36.9375 C 34.519531 -38.84375 33.679688 -40.347656 32.265625 -41.453125 C 30.859375 -42.566406 29.007812 -43.125 26.71875 -43.125 C 24.757812 -43.125 23.253906 -42.75 22.203125 -42 C 21.148438 -41.25 20.625 -40.21875 20.625 -38.90625 C 20.625 -37.332031 21.457031 -36.148438 23.125 -35.359375 C 24.800781 -34.578125 27.410156 -33.796875 30.953125 -33.015625 C 35.015625 -31.960938 38.320312 -30.925781 40.875 -29.90625 C 43.425781 -28.894531 45.664062 -27.257812 47.59375 -25 C 49.53125 -22.738281 50.53125 -19.710938 50.59375 -15.921875 C 50.59375 -12.710938 49.691406 -9.84375 47.890625 -7.3125 C 46.085938 -4.789062 43.5 -2.8125 40.125 -1.375 C 36.757812 0.0625 32.847656 0.78125 28.390625 0.78125 Z M 28.390625 0.78125 "/></g></g></g><g fill="#ffffff" fill-opacity="1"><g transform="translate(401.131237, 322.015312)"><g><path d="M 22.890625 -47.0625 C 24.523438 -49.613281 26.785156 -51.675781 29.671875 -53.25 C 32.554688 -54.820312 35.929688 -55.609375 39.796875 -55.609375 C 44.316406 -55.609375 48.410156 -54.460938 52.078125 -52.171875 C 55.742188 -49.878906 58.640625 -46.601562 60.765625 -42.34375 C 62.890625 -38.082031 63.953125 -33.140625 63.953125 -27.515625 C 63.953125 -21.878906 62.890625 -16.914062 60.765625 -12.625 C 58.640625 -8.332031 55.742188 -5.023438 52.078125 -2.703125 C 48.410156 -0.378906 44.316406 0.78125 39.796875 0.78125 C 35.992188 0.78125 32.632812 -0.00390625 29.71875 -1.578125 C 26.800781 -3.148438 24.523438 -5.175781 22.890625 -7.65625 L 22.890625 26.140625 L 6.09375 26.140625 L 6.09375 -54.828125 L 22.890625 -54.828125 Z M 46.859375 -27.515625 C 46.859375 -31.703125 45.695312 -34.988281 43.375 -37.375 C 41.050781 -39.769531 38.1875 -40.96875 34.78125 -40.96875 C 31.4375 -40.96875 28.601562 -39.753906 26.28125 -37.328125 C 23.957031 -34.910156 22.796875 -31.601562 22.796875 -27.40625 C 22.796875 -23.21875 23.957031 -19.910156 26.28125 -17.484375 C 28.601562 -15.066406 31.4375 -13.859375 34.78125 -13.859375 C 38.125 -13.859375 40.972656 -15.082031 43.328125 -17.53125 C 45.679688 -19.988281 46.859375 -23.316406 46.859375 -27.515625 Z M 46.859375 -27.515625 "/></g></g></g><g fill="#ffffff" fill-opacity="1"><g transform="translate(467.831642, 322.015312)"><g><path d="M 31.046875 0.78125 C 25.671875 0.78125 20.835938 -0.363281 16.546875 -2.65625 C 12.265625 -4.945312 8.894531 -8.21875 6.4375 -12.46875 C 3.976562 -16.726562 2.75 -21.707031 2.75 -27.40625 C 2.75 -33.039062 3.992188 -38.003906 6.484375 -42.296875 C 8.972656 -46.585938 12.378906 -49.878906 16.703125 -52.171875 C 21.023438 -54.460938 25.875 -55.609375 31.25 -55.609375 C 36.613281 -55.609375 41.457031 -54.460938 45.78125 -52.171875 C 50.101562 -49.878906 53.507812 -46.585938 56 -42.296875 C 58.488281 -38.003906 59.734375 -33.039062 59.734375 -27.40625 C 59.734375 -21.78125 58.472656 -16.820312 55.953125 -12.53125 C 53.429688 -8.238281 49.992188 -4.945312 45.640625 -2.65625 C 41.285156 -0.363281 36.421875 0.78125 31.046875 0.78125 Z M 31.046875 -13.75 C 34.253906 -13.75 36.988281 -14.925781 39.25 -17.28125 C 41.507812 -19.644531 42.640625 -23.019531 42.640625 -27.40625 C 42.640625 -31.800781 41.539062 -35.175781 39.34375 -37.53125 C 37.15625 -39.882812 34.457031 -41.0625 31.25 -41.0625 C 27.96875 -41.0625 25.242188 -39.898438 23.078125 -37.578125 C 20.921875 -35.253906 19.84375 -31.863281 19.84375 -27.40625 C 19.84375 -23.019531 20.90625 -19.644531 23.03125 -17.28125 C 25.164062 -14.925781 27.835938 -13.75 31.046875 -13.75 Z M 31.046875 -13.75 "/></g></g></g><g fill="#9bd5b1" fill-opacity="1"><g transform="translate(530.417954, 322.015312)"><g><path d="M 3.25 -34.578125 C 3.25 -41.390625 4.71875 -47.460938 7.65625 -52.796875 C 10.601562 -58.140625 14.710938 -62.300781 19.984375 -65.28125 C 25.265625 -68.257812 31.242188 -69.75 37.921875 -69.75 C 46.109375 -69.75 53.113281 -67.585938 58.9375 -63.265625 C 64.769531 -58.941406 68.671875 -53.050781 70.640625 -45.59375 L 52.171875 -45.59375 C 50.796875 -48.46875 48.847656 -50.660156 46.328125 -52.171875 C 43.804688 -53.679688 40.941406 -54.4375 37.734375 -54.4375 C 32.554688 -54.4375 28.363281 -52.632812 25.15625 -49.03125 C 21.945312 -45.425781 20.34375 -40.609375 20.34375 -34.578125 C 20.34375 -28.554688 21.945312 -23.742188 25.15625 -20.140625 C 28.363281 -16.535156 32.554688 -14.734375 37.734375 -14.734375 C 40.941406 -14.734375 43.804688 -15.484375 46.328125 -16.984375 C 48.847656 -18.492188 50.796875 -20.691406 52.171875 -23.578125 L 70.640625 -23.578125 C 68.671875 -16.109375 64.769531 -10.226562 58.9375 -5.9375 C 53.113281 -1.65625 46.109375 0.484375 37.921875 0.484375 C 31.242188 0.484375 25.265625 -1.003906 19.984375 -3.984375 C 14.710938 -6.960938 10.601562 -11.101562 7.65625 -16.40625 C 4.71875 -21.707031 3.25 -27.765625 3.25 -34.578125 Z M 3.25 -34.578125 "/></g></g></g><g fill="#9bd5b1" fill-opacity="1"><g transform="translate(605.271729, 322.015312)"><g><path d="M 39.796875 -55.40625 C 46.078125 -55.40625 51.117188 -53.328125 54.921875 -49.171875 C 58.722656 -45.015625 60.625 -39.300781 60.625 -32.03125 L 60.625 0 L 43.921875 0 L 43.921875 -29.765625 C 43.921875 -33.429688 42.96875 -36.28125 41.0625 -38.3125 C 39.164062 -40.34375 36.613281 -41.359375 33.40625 -41.359375 C 30.195312 -41.359375 27.640625 -40.34375 25.734375 -38.3125 C 23.835938 -36.28125 22.890625 -33.429688 22.890625 -29.765625 L 22.890625 0 L 6.09375 0 L 6.09375 -72.703125 L 22.890625 -72.703125 L 22.890625 -47.453125 C 24.597656 -49.878906 26.925781 -51.8125 29.875 -53.25 C 32.820312 -54.6875 36.128906 -55.40625 39.796875 -55.40625 Z M 39.796875 -55.40625 "/></g></g></g><g fill="#9bd5b1" fill-opacity="1"><g transform="translate(671.480977, 322.015312)"><g><path d="M 2.75 -27.515625 C 2.75 -33.140625 3.8125 -38.082031 5.9375 -42.34375 C 8.070312 -46.601562 10.972656 -49.878906 14.640625 -52.171875 C 18.304688 -54.460938 22.398438 -55.609375 26.921875 -55.609375 C 30.785156 -55.609375 34.175781 -54.820312 37.09375 -53.25 C 40.007812 -51.675781 42.25 -49.613281 43.8125 -47.0625 L 43.8125 -54.828125 L 60.625 -54.828125 L 60.625 0 L 43.8125 0 L 43.8125 -7.765625 C 42.175781 -5.210938 39.898438 -3.148438 36.984375 -1.578125 C 34.078125 -0.00390625 30.691406 0.78125 26.828125 0.78125 C 22.367188 0.78125 18.304688 -0.378906 14.640625 -2.703125 C 10.972656 -5.023438 8.070312 -8.332031 5.9375 -12.625 C 3.8125 -16.914062 2.75 -21.878906 2.75 -27.515625 Z M 43.8125 -27.40625 C 43.8125 -31.601562 42.648438 -34.910156 40.328125 -37.328125 C 38.003906 -39.753906 35.171875 -40.96875 31.828125 -40.96875 C 28.492188 -40.96875 25.660156 -39.769531 23.328125 -37.375 C 21.003906 -34.988281 19.84375 -31.703125 19.84375 -27.515625 C 19.84375 -23.316406 21.003906 -19.988281 23.328125 -17.53125 C 25.660156 -15.082031 28.492188 -13.859375 31.828125 -13.859375 C 35.171875 -13.859375 38.003906 -15.066406 40.328125 -17.484375 C 42.648438 -19.910156 43.8125 -23.21875 43.8125 -27.40625 Z M 43.8125 -27.40625 "/></g></g></g><g fill="#9bd5b1" fill-opacity="1"><g transform="translate(738.181382, 322.015312)"><g><path d="M 36.640625 -14.25 L 36.640625 0 L 28.09375 0 C 22.007812 0 17.265625 -1.488281 13.859375 -4.46875 C 10.453125 -7.445312 8.75 -12.3125 8.75 -19.0625 L 8.75 -40.875 L 2.0625 -40.875 L 2.0625 -54.828125 L 8.75 -54.828125 L 8.75 -68.1875 L 25.546875 -68.1875 L 25.546875 -54.828125 L 36.546875 -54.828125 L 36.546875 -40.875 L 25.546875 -40.875 L 25.546875 -18.859375 C 25.546875 -17.222656 25.9375 -16.046875 26.71875 -15.328125 C 27.507812 -14.609375 28.820312 -14.25 30.65625 -14.25 Z M 36.640625 -14.25 "/></g></g></g></svg>